<?xml version="1.0" encoding="us-ascii" standalone="no"?><svg xmlns="http://www.w3.org/2000/svg" xmlns:xlink="http://www.w3.org/1999/xlink" contentStyleType="text/css" height="739px" preserveAspectRatio="none" style="width:1104px;height:739px;background:#FFFFFF;" version="1.1" viewBox="0 0 1104 739" width="1104px" zoomAndPan="magnify"><defs/><g><ellipse cx="385.625" cy="20" fill="#222222" rx="10" ry="10" style="stroke:#222222;stroke-width:1.0;"/><rect fill="#F1F1F1" height="33.9688" rx="12.5" ry="12.5" style="stroke:#181818;stroke-width:0.5;" width="193" x="289.125" y="50"/><text fill="#000000" font-family="sans-serif" font-size="12" lengthAdjust="spacing" textLength="173" x="299.125" y="71.1387">Usu&#225;rio acessa a aplica&#231;&#227;o</text><polygon fill="#F1F1F1" points="319.125,103.9688,452.125,103.9688,464.125,115.9688,452.125,127.9688,319.125,127.9688,307.125,115.9688,319.125,103.9688" style="stroke:#181818;stroke-width:0.5;"/><text fill="#000000" font-family="sans-serif" font-size="11" lengthAdjust="spacing" textLength="133" x="319.125" y="119.7769">O usu&#225;rio est&#225; logado?</text><text fill="#000000" font-family="sans-serif" font-size="11" lengthAdjust="spacing" textLength="22" x="285.125" y="113.3745">Sim</text><text fill="#000000" font-family="sans-serif" font-size="11" lengthAdjust="spacing" textLength="22" x="464.125" y="113.3745">N&#227;o</text><rect fill="#F1F1F1" height="33.9688" rx="12.5" ry="12.5" style="stroke:#181818;stroke-width:0.5;" width="315" x="11" y="137.9688"/><text fill="#000000" font-family="sans-serif" font-size="12" lengthAdjust="spacing" textLength="295" x="21" y="159.1074">Redirecionar para a &#250;ltima aplica&#231;&#227;o acessada</text><rect fill="#F1F1F1" height="33.9688" rx="12.5" ry="12.5" style="stroke:#181818;stroke-width:0.5;" width="135" x="535.25" y="137.9688"/><text fill="#000000" font-family="sans-serif" font-size="12" lengthAdjust="spacing" textLength="115" x="545.25" y="159.1074">Exibir tela de login</text><polygon fill="#F1F1F1" points="542.75,191.9375,662.75,191.9375,674.75,203.9375,662.75,215.9375,542.75,215.9375,530.75,203.9375,542.75,191.9375" style="stroke:#181818;stroke-width:0.5;"/><text fill="#000000" font-family="sans-serif" font-size="11" lengthAdjust="spacing" textLength="120" x="542.75" y="207.7456">Login bem-sucedido?</text><text fill="#000000" font-family="sans-serif" font-size="11" lengthAdjust="spacing" textLength="22" x="508.75" y="201.3433">Sim</text><text fill="#000000" font-family="sans-serif" font-size="11" lengthAdjust="spacing" textLength="22" x="674.75" y="201.3433">N&#227;o</text><rect fill="#F1F1F1" height="33.9688" rx="12.5" ry="12.5" style="stroke:#181818;stroke-width:0.5;" width="257" x="356" y="225.9375"/><text fill="#000000" font-family="sans-serif" font-size="12" lengthAdjust="spacing" textLength="237" x="366" y="247.0762">Redirecionar para a aplica&#231;&#227;o padr&#227;o</text><rect fill="#F1F1F1" height="33.9688" rx="12.5" ry="12.5" style="stroke:#181818;stroke-width:0.5;" width="176" x="633" y="225.9375"/><text fill="#000000" font-family="sans-serif" font-size="12" lengthAdjust="spacing" textLength="156" x="643" y="247.0762">Exibir mensagem de erro</text><polygon fill="#F1F1F1" points="602.75,265.9063,614.75,277.9063,602.75,289.9063,590.75,277.9063,602.75,265.9063" style="stroke:#181818;stroke-width:0.5;"/><polygon fill="#F1F1F1" points="385.625,295.9063,397.625,307.9063,385.625,319.9063,373.625,307.9063,385.625,295.9063" style="stroke:#181818;stroke-width:0.5;"/><polygon fill="#F1F1F1" points="248.625,339.9063,522.625,339.9063,534.625,351.9063,522.625,363.9063,248.625,363.9063,236.625,351.9063,248.625,339.9063" style="stroke:#181818;stroke-width:0.5;"/><text fill="#000000" font-family="sans-serif" font-size="11" lengthAdjust="spacing" textLength="274" x="248.625" y="355.7144">O usu&#225;rio deseja definir uma aplica&#231;&#227;o padr&#227;o?</text><text fill="#000000" font-family="sans-serif" font-size="11" lengthAdjust="spacing" textLength="22" x="214.625" y="349.312">Sim</text><text fill="#000000" font-family="sans-serif" font-size="11" lengthAdjust="spacing" textLength="22" x="534.625" y="349.312">N&#227;o</text><rect fill="#F1F1F1" height="33.9688" rx="12.5" ry="12.5" style="stroke:#181818;stroke-width:0.5;" width="193" x="89.125" y="373.9063"/><text fill="#000000" font-family="sans-serif" font-size="12" lengthAdjust="spacing" textLength="173" x="99.125" y="395.0449">Exibir op&#231;&#245;es de aplicativos</text><rect fill="#F1F1F1" height="33.9688" rx="12.5" ry="12.5" style="stroke:#181818;stroke-width:0.5;" width="319" x="26.125" y="427.875"/><text fill="#000000" font-family="sans-serif" font-size="12" lengthAdjust="spacing" textLength="299" x="36.125" y="449.0137">Usu&#225;rio seleciona a aplica&#231;&#227;o padr&#227;o desejada</text><rect fill="#F1F1F1" height="33.9688" rx="12.5" ry="12.5" style="stroke:#181818;stroke-width:0.5;" width="194" x="88.625" y="481.8438"/><text fill="#000000" font-family="sans-serif" font-size="12" lengthAdjust="spacing" textLength="174" x="98.625" y="502.9824">Salvar a escolha do usu&#225;rio</text><rect fill="#F1F1F1" height="33.9688" rx="12.5" ry="12.5" style="stroke:#181818;stroke-width:0.5;" width="441" x="365.125" y="373.9063"/><text fill="#000000" font-family="sans-serif" font-size="12" lengthAdjust="spacing" textLength="421" x="375.125" y="395.0449">Definir a aplica&#231;&#227;o padr&#227;o com base na &#250;ltima aplica&#231;&#227;o acessada</text><polygon fill="#F1F1F1" points="385.625,521.8125,397.625,533.8125,385.625,545.8125,373.625,533.8125,385.625,521.8125" style="stroke:#181818;stroke-width:0.5;"/><path d="M536.125,555.8125 L536.125,617.3438 L516.125,621.3438 L536.125,625.3438 L536.125,686.875 A0,0 0 0 0 536.125,686.875 L1092.125,686.875 A0,0 0 0 0 1092.125,686.875 L1092.125,565.8125 L1082.125,555.8125 L536.125,555.8125 A0,0 0 0 0 536.125,555.8125 " fill="#FEFFDD" style="stroke:#181818;stroke-width:0.5;"/><path d="M1082.125,555.8125 L1082.125,565.8125 L1092.125,565.8125 L1082.125,555.8125 " fill="#FEFFDD" style="stroke:#181818;stroke-width:0.5;"/><text fill="#000000" font-family="sans-serif" font-size="13" lengthAdjust="spacing" textLength="110" x="542.125" y="572.8794">Texto explicativo:</text><text fill="#000000" font-family="sans-serif" font-size="13" lengthAdjust="spacing" textLength="175" x="542.125" y="588.0122">- Este &#233; o ponto de partida.</text><text fill="#000000" font-family="sans-serif" font-size="13" lengthAdjust="spacing" textLength="535" x="542.125" y="603.145">- Se o usu&#225;rio j&#225; est&#225; logado, ele &#233; redirecionado para a &#250;ltima aplica&#231;&#227;o acessada.</text><text fill="#000000" font-family="sans-serif" font-size="13" lengthAdjust="spacing" textLength="288" x="542.125" y="618.2778">- Caso contr&#225;rio, ele passa pela tela de login.</text><text fill="#000000" font-family="sans-serif" font-size="13" lengthAdjust="spacing" textLength="480" x="542.125" y="633.4106">- Se o login for bem-sucedido, ele &#233; redirecionado para a aplica&#231;&#227;o padr&#227;o.</text><text fill="#000000" font-family="sans-serif" font-size="13" lengthAdjust="spacing" textLength="283" x="542.125" y="648.5435">- Se n&#227;o, uma mensagem de erro &#233; exibida.</text><text fill="#000000" font-family="sans-serif" font-size="13" lengthAdjust="spacing" textLength="369" x="542.125" y="663.6763">- O usu&#225;rio pode definir uma aplica&#231;&#227;o padr&#227;o se desejar.</text><text fill="#000000" font-family="sans-serif" font-size="13" lengthAdjust="spacing" textLength="413" x="542.125" y="678.8091">- Caso contr&#225;rio, a &#250;ltima aplica&#231;&#227;o acessada se torna a padr&#227;o.</text><rect fill="#F1F1F1" height="33.9688" rx="12.5" ry="12.5" style="stroke:#181818;stroke-width:0.5;" width="261" x="255.125" y="604.3594"/><text fill="#000000" font-family="sans-serif" font-size="12" lengthAdjust="spacing" textLength="241" x="265.125" y="625.498">Usu&#225;rio logado na aplica&#231;&#227;o desejada</text><ellipse cx="385.625" cy="717.875" fill="none" rx="11" ry="11" style="stroke:#222222;stroke-width:1.0;"/><ellipse cx="385.625" cy="717.875" fill="#222222" rx="6" ry="6" style="stroke:#111111;stroke-width:1.0;"/><line style="stroke:#181818;stroke-width:1.0;" x1="385.625" x2="385.625" y1="30" y2="50"/><polygon fill="#181818" points="381.625,40,385.625,50,389.625,40,385.625,44" style="stroke:#181818;stroke-width:1.0;"/><line style="stroke:#181818;stroke-width:1.0;" x1="530.75" x2="484.5" y1="203.9375" y2="203.9375"/><line style="stroke:#181818;stroke-width:1.0;" x1="484.5" x2="484.5" y1="203.9375" y2="225.9375"/><polygon fill="#181818" points="480.5,215.9375,484.5,225.9375,488.5,215.9375,484.5,219.9375" style="stroke:#181818;stroke-width:1.0;"/><line style="stroke:#181818;stroke-width:1.0;" x1="674.75" x2="721" y1="203.9375" y2="203.9375"/><line style="stroke:#181818;stroke-width:1.0;" x1="721" x2="721" y1="203.9375" y2="225.9375"/><polygon fill="#181818" points="717,215.9375,721,225.9375,725,215.9375,721,219.9375" style="stroke:#181818;stroke-width:1.0;"/><line style="stroke:#181818;stroke-width:1.0;" x1="484.5" x2="484.5" y1="259.9063" y2="277.9063"/><line style="stroke:#181818;stroke-width:1.0;" x1="484.5" x2="590.75" y1="277.9063" y2="277.9063"/><polygon fill="#181818" points="580.75,273.9063,590.75,277.9063,580.75,281.9063,584.75,277.9063" style="stroke:#181818;stroke-width:1.0;"/><line style="stroke:#181818;stroke-width:1.0;" x1="721" x2="721" y1="259.9063" y2="277.9063"/><line style="stroke:#181818;stroke-width:1.0;" x1="721" x2="614.75" y1="277.9063" y2="277.9063"/><polygon fill="#181818" points="624.75,273.9063,614.75,277.9063,624.75,281.9063,620.75,277.9063" style="stroke:#181818;stroke-width:1.0;"/><line style="stroke:#181818;stroke-width:1.0;" x1="602.75" x2="602.75" y1="171.9375" y2="191.9375"/><polygon fill="#181818" points="598.75,181.9375,602.75,191.9375,606.75,181.9375,602.75,185.9375" style="stroke:#181818;stroke-width:1.0;"/><line style="stroke:#181818;stroke-width:1.0;" x1="307.125" x2="168.5" y1="115.9688" y2="115.9688"/><line style="stroke:#181818;stroke-width:1.0;" x1="168.5" x2="168.5" y1="115.9688" y2="137.9688"/><polygon fill="#181818" points="164.5,127.9688,168.5,137.9688,172.5,127.9688,168.5,131.9688" style="stroke:#181818;stroke-width:1.0;"/><line style="stroke:#181818;stroke-width:1.0;" x1="464.125" x2="602.75" y1="115.9688" y2="115.9688"/><line style="stroke:#181818;stroke-width:1.0;" x1="602.75" x2="602.75" y1="115.9688" y2="137.9688"/><polygon fill="#181818" points="598.75,127.9688,602.75,137.9688,606.75,127.9688,602.75,131.9688" style="stroke:#181818;stroke-width:1.0;"/><line style="stroke:#181818;stroke-width:1.0;" x1="168.5" x2="168.5" y1="171.9375" y2="307.9063"/><line style="stroke:#181818;stroke-width:1.0;" x1="168.5" x2="373.625" y1="307.9063" y2="307.9063"/><polygon fill="#181818" points="363.625,303.9063,373.625,307.9063,363.625,311.9063,367.625,307.9063" style="stroke:#181818;stroke-width:1.0;"/><line style="stroke:#181818;stroke-width:1.0;" x1="602.75" x2="602.75" y1="289.9063" y2="307.9063"/><line style="stroke:#181818;stroke-width:1.0;" x1="602.75" x2="397.625" y1="307.9063" y2="307.9063"/><polygon fill="#181818" points="407.625,303.9063,397.625,307.9063,407.625,311.9063,403.625,307.9063" style="stroke:#181818;stroke-width:1.0;"/><line style="stroke:#181818;stroke-width:1.0;" x1="385.625" x2="385.625" y1="83.9688" y2="103.9688"/><polygon fill="#181818" points="381.625,93.9688,385.625,103.9688,389.625,93.9688,385.625,97.9688" style="stroke:#181818;stroke-width:1.0;"/><line style="stroke:#181818;stroke-width:1.0;" x1="185.625" x2="185.625" y1="407.875" y2="427.875"/><polygon fill="#181818" points="181.625,417.875,185.625,427.875,189.625,417.875,185.625,421.875" style="stroke:#181818;stroke-width:1.0;"/><line style="stroke:#181818;stroke-width:1.0;" x1="185.625" x2="185.625" y1="461.8438" y2="481.8438"/><polygon fill="#181818" points="181.625,471.8438,185.625,481.8438,189.625,471.8438,185.625,475.8438" style="stroke:#181818;stroke-width:1.0;"/><line style="stroke:#181818;stroke-width:1.0;" x1="236.625" x2="185.625" y1="351.9063" y2="351.9063"/><line style="stroke:#181818;stroke-width:1.0;" x1="185.625" x2="185.625" y1="351.9063" y2="373.9063"/><polygon fill="#181818" points="181.625,363.9063,185.625,373.9063,189.625,363.9063,185.625,367.9063" style="stroke:#181818;stroke-width:1.0;"/><line style="stroke:#181818;stroke-width:1.0;" x1="534.625" x2="585.625" y1="351.9063" y2="351.9063"/><line style="stroke:#181818;stroke-width:1.0;" x1="585.625" x2="585.625" y1="351.9063" y2="373.9063"/><polygon fill="#181818" points="581.625,363.9063,585.625,373.9063,589.625,363.9063,585.625,367.9063" style="stroke:#181818;stroke-width:1.0;"/><line style="stroke:#181818;stroke-width:1.0;" x1="185.625" x2="185.625" y1="515.8125" y2="533.8125"/><line style="stroke:#181818;stroke-width:1.0;" x1="185.625" x2="373.625" y1="533.8125" y2="533.8125"/><polygon fill="#181818" points="363.625,529.8125,373.625,533.8125,363.625,537.8125,367.625,533.8125" style="stroke:#181818;stroke-width:1.0;"/><line style="stroke:#181818;stroke-width:1.0;" x1="585.625" x2="585.625" y1="407.875" y2="533.8125"/><line style="stroke:#181818;stroke-width:1.0;" x1="585.625" x2="397.625" y1="533.8125" y2="533.8125"/><polygon fill="#181818" points="407.625,529.8125,397.625,533.8125,407.625,537.8125,403.625,533.8125" style="stroke:#181818;stroke-width:1.0;"/><line style="stroke:#181818;stroke-width:1.0;" x1="385.625" x2="385.625" y1="319.9063" y2="339.9063"/><polygon fill="#181818" points="381.625,329.9063,385.625,339.9063,389.625,329.9063,385.625,333.9063" style="stroke:#181818;stroke-width:1.0;"/><line style="stroke:#181818;stroke-width:1.0;" x1="385.625" x2="385.625" y1="545.8125" y2="604.3594"/><polygon fill="#181818" points="381.625,594.3594,385.625,604.3594,389.625,594.3594,385.625,598.3594" style="stroke:#181818;stroke-width:1.0;"/><line style="stroke:#181818;stroke-width:1.0;" x1="385.625" x2="385.625" y1="638.3281" y2="706.875"/><polygon fill="#181818" points="381.625,696.875,385.625,706.875,389.625,696.875,385.625,700.875" style="stroke:#181818;stroke-width:1.0;"/><!--SRC=[ZLFDJi904BxlKymH4l01uE11kHbDH1zWw0wmfjrfTXV2wn0FnWVmuhKlvanRAKWLqwHfk_FzpCpNc30aCtcEcseV70Dc52E2N6NkCgpUgbUU6hU4mGDileiefceFEQ_GylKGqfey3EQk61g0oIDP5oXpx350YK79giyykUA4j5MoE3MKHuB1lNoi2MOxjt014kK8bbJ6-QaSg8axVO455UEuoKJeNFyN1yVA9TfGjmLmAjs95-GZhgXG0nH2K-kjMvhc_dCYbYAzgDsbymBV5BsAPxDgrRYKiW-AgjR0ajjoLD5kCv7ofgV-RbeBEaz1pJ7VIlCegyeuNuipFfWz6_XjwxgVD-C25YW0Vt6FpMWwoqr257WCw8mQpuaWkDKwcIVQ9KdMxj3-n8nX5kMyUWTnmpufLFUPdCKhEPqJT5t1YqJoE9WZMMuD3bqSBFydaSfzWr5RzodKx0rPYVflb1hCatGUpDHliEHm4j6_dVJClENpyZYgi_GpZaf6cft6x54GIvQI2p6KABLB2Bsj_ZqTHISETGuFVcNreCiq9YOkpHS0]--></g></svg>