<?xml version="1.0" encoding="us-ascii" standalone="no"?><svg xmlns="http://www.w3.org/2000/svg" xmlns:xlink="http://www.w3.org/1999/xlink" contentStyleType="text/css" height="887px" preserveAspectRatio="none" style="width:1614px;height:887px;background:#FFFFFF;" version="1.1" viewBox="0 0 1614 887" width="1614px" zoomAndPan="magnify"><defs/><g><ellipse cx="777.0625" cy="20" fill="#222222" rx="10" ry="10" style="stroke:#222222;stroke-width:1.0;"/><rect fill="#F1F1F1" height="33.9688" rx="12.5" ry="12.5" style="stroke:#181818;stroke-width:0.5;" width="193" x="680.5625" y="50"/><text fill="#000000" font-family="sans-serif" font-size="12" lengthAdjust="spacing" textLength="173" x="690.5625" y="71.1387">Usu&#225;rio acessa a aplica&#231;&#227;o</text><polygon fill="#F1F1F1" points="710.5625,103.9688,843.5625,103.9688,855.5625,115.9688,843.5625,127.9688,710.5625,127.9688,698.5625,115.9688,710.5625,103.9688" style="stroke:#181818;stroke-width:0.5;"/><text fill="#000000" font-family="sans-serif" font-size="11" lengthAdjust="spacing" textLength="133" x="710.5625" y="119.7769">O usu&#225;rio est&#225; logado?</text><text fill="#000000" font-family="sans-serif" font-size="11" lengthAdjust="spacing" textLength="22" x="676.5625" y="113.3745">Sim</text><text fill="#000000" font-family="sans-serif" font-size="11" lengthAdjust="spacing" textLength="22" x="855.5625" y="113.3745">N&#227;o</text><rect fill="#F1F1F1" height="33.9688" rx="12.5" ry="12.5" style="stroke:#181818;stroke-width:0.5;" width="269" x="190.25" y="137.9688"/><text fill="#000000" font-family="sans-serif" font-size="12" lengthAdjust="spacing" textLength="249" x="200.25" y="159.1074">Consultar API de aplicativos por usu&#225;rio</text><polygon fill="#F1F1F1" points="229.25,191.9375,420.25,191.9375,432.25,203.9375,420.25,215.9375,229.25,215.9375,217.25,203.9375,229.25,191.9375" style="stroke:#181818;stroke-width:0.5;"/><text fill="#000000" font-family="sans-serif" font-size="11" lengthAdjust="spacing" textLength="191" x="229.25" y="207.7456">Aplica&#231;&#227;o padr&#227;o definida na API?</text><text fill="#000000" font-family="sans-serif" font-size="11" lengthAdjust="spacing" textLength="22" x="195.25" y="201.3433">Sim</text><text fill="#000000" font-family="sans-serif" font-size="11" lengthAdjust="spacing" textLength="22" x="432.25" y="201.3433">N&#227;o</text><rect fill="#F1F1F1" height="33.9688" rx="12.5" ry="12.5" style="stroke:#181818;stroke-width:0.5;" width="300" x="11" y="225.9375"/><text fill="#000000" font-family="sans-serif" font-size="12" lengthAdjust="spacing" textLength="280" x="21" y="247.0762">Redirecionar para a aplica&#231;&#227;o padr&#227;o da API</text><rect fill="#F1F1F1" height="33.9688" rx="12.5" ry="12.5" style="stroke:#181818;stroke-width:0.5;" width="315" x="331" y="225.9375"/><text fill="#000000" font-family="sans-serif" font-size="12" lengthAdjust="spacing" textLength="295" x="341" y="247.0762">Redirecionar para a &#250;ltima aplica&#231;&#227;o acessada</text><polygon fill="#F1F1F1" points="324.75,265.9063,336.75,277.9063,324.75,289.9063,312.75,277.9063,324.75,265.9063" style="stroke:#181818;stroke-width:0.5;"/><rect fill="#F1F1F1" height="33.9688" rx="12.5" ry="12.5" style="stroke:#181818;stroke-width:0.5;" width="135" x="1161.875" y="137.9688"/><text fill="#000000" font-family="sans-serif" font-size="12" lengthAdjust="spacing" textLength="115" x="1171.875" y="159.1074">Exibir tela de login</text><polygon fill="#F1F1F1" points="1169.375,191.9375,1289.375,191.9375,1301.375,203.9375,1289.375,215.9375,1169.375,215.9375,1157.375,203.9375,1169.375,191.9375" style="stroke:#181818;stroke-width:0.5;"/><text fill="#000000" font-family="sans-serif" font-size="11" lengthAdjust="spacing" textLength="120" x="1169.375" y="207.7456">Login bem-sucedido?</text><text fill="#000000" font-family="sans-serif" font-size="11" lengthAdjust="spacing" textLength="22" x="1135.375" y="201.3433">Sim</text><text fill="#000000" font-family="sans-serif" font-size="11" lengthAdjust="spacing" textLength="22" x="1301.375" y="201.3433">N&#227;o</text><rect fill="#F1F1F1" height="33.9688" rx="12.5" ry="12.5" style="stroke:#181818;stroke-width:0.5;" width="269" x="875.25" y="225.9375"/><text fill="#000000" font-family="sans-serif" font-size="12" lengthAdjust="spacing" textLength="249" x="885.25" y="247.0762">Consultar API de aplicativos por usu&#225;rio</text><polygon fill="#F1F1F1" points="914.25,294.9063,1105.25,294.9063,1117.25,306.9063,1105.25,318.9063,914.25,318.9063,902.25,306.9063,914.25,294.9063" style="stroke:#181818;stroke-width:0.5;"/><text fill="#000000" font-family="sans-serif" font-size="11" lengthAdjust="spacing" textLength="191" x="914.25" y="310.7144">Aplica&#231;&#227;o padr&#227;o definida na API?</text><text fill="#000000" font-family="sans-serif" font-size="11" lengthAdjust="spacing" textLength="22" x="880.25" y="304.312">Sim</text><text fill="#000000" font-family="sans-serif" font-size="11" lengthAdjust="spacing" textLength="22" x="1117.25" y="304.312">N&#227;o</text><rect fill="#F1F1F1" height="33.9688" rx="12.5" ry="12.5" style="stroke:#181818;stroke-width:0.5;" width="300" x="696" y="328.9063"/><text fill="#000000" font-family="sans-serif" font-size="12" lengthAdjust="spacing" textLength="280" x="706" y="350.0449">Redirecionar para a aplica&#231;&#227;o padr&#227;o da API</text><rect fill="#F1F1F1" height="33.9688" rx="12.5" ry="12.5" style="stroke:#181818;stroke-width:0.5;" width="315" x="1016" y="328.9063"/><text fill="#000000" font-family="sans-serif" font-size="12" lengthAdjust="spacing" textLength="295" x="1026" y="350.0449">Redirecionar para a &#250;ltima aplica&#231;&#227;o acessada</text><polygon fill="#F1F1F1" points="1009.75,368.875,1021.75,380.875,1009.75,392.875,997.75,380.875,1009.75,368.875" style="stroke:#181818;stroke-width:0.5;"/><rect fill="#F1F1F1" height="33.9688" rx="12.5" ry="12.5" style="stroke:#181818;stroke-width:0.5;" width="176" x="1361" y="225.9375"/><text fill="#000000" font-family="sans-serif" font-size="12" lengthAdjust="spacing" textLength="156" x="1371" y="247.0762">Exibir mensagem de erro</text><polygon fill="#F1F1F1" points="1229.375,398.875,1241.375,410.875,1229.375,422.875,1217.375,410.875,1229.375,398.875" style="stroke:#181818;stroke-width:0.5;"/><polygon fill="#F1F1F1" points="777.0625,428.875,789.0625,440.875,777.0625,452.875,765.0625,440.875,777.0625,428.875" style="stroke:#181818;stroke-width:0.5;"/><polygon fill="#F1F1F1" points="640.0625,472.875,914.0625,472.875,926.0625,484.875,914.0625,496.875,640.0625,496.875,628.0625,484.875,640.0625,472.875" style="stroke:#181818;stroke-width:0.5;"/><text fill="#000000" font-family="sans-serif" font-size="11" lengthAdjust="spacing" textLength="274" x="640.0625" y="488.6831">O usu&#225;rio deseja definir uma aplica&#231;&#227;o padr&#227;o?</text><text fill="#000000" font-family="sans-serif" font-size="11" lengthAdjust="spacing" textLength="22" x="606.0625" y="482.2808">Sim</text><text fill="#000000" font-family="sans-serif" font-size="11" lengthAdjust="spacing" textLength="22" x="926.0625" y="482.2808">N&#227;o</text><rect fill="#F1F1F1" height="33.9688" rx="12.5" ry="12.5" style="stroke:#181818;stroke-width:0.5;" width="193" x="472.3125" y="506.875"/><text fill="#000000" font-family="sans-serif" font-size="12" lengthAdjust="spacing" textLength="173" x="482.3125" y="528.0137">Exibir op&#231;&#245;es de aplicativos</text><rect fill="#F1F1F1" height="33.9688" rx="12.5" ry="12.5" style="stroke:#181818;stroke-width:0.5;" width="319" x="409.3125" y="560.8438"/><text fill="#000000" font-family="sans-serif" font-size="12" lengthAdjust="spacing" textLength="299" x="419.3125" y="581.9824">Usu&#225;rio seleciona a aplica&#231;&#227;o padr&#227;o desejada</text><rect fill="#F1F1F1" height="33.9688" rx="12.5" ry="12.5" style="stroke:#181818;stroke-width:0.5;" width="352" x="392.8125" y="614.8125"/><text fill="#000000" font-family="sans-serif" font-size="12" lengthAdjust="spacing" textLength="332" x="402.8125" y="635.9512">Atualizar API de aplicativos com a escolha do usu&#225;rio</text><rect fill="#F1F1F1" height="33.9688" rx="12.5" ry="12.5" style="stroke:#181818;stroke-width:0.5;" width="441" x="764.8125" y="506.875"/><text fill="#000000" font-family="sans-serif" font-size="12" lengthAdjust="spacing" textLength="421" x="774.8125" y="528.0137">Definir a aplica&#231;&#227;o padr&#227;o com base na &#250;ltima aplica&#231;&#227;o acessada</text><polygon fill="#F1F1F1" points="777.0625,654.7813,789.0625,666.7813,777.0625,678.7813,765.0625,666.7813,777.0625,654.7813" style="stroke:#181818;stroke-width:0.5;"/><path d="M927.5625,688.7813 L927.5625,757.8789 L907.5625,761.8789 L927.5625,765.8789 L927.5625,834.9766 A0,0 0 0 0 927.5625,834.9766 L1602.5625,834.9766 A0,0 0 0 0 1602.5625,834.9766 L1602.5625,698.7813 L1592.5625,688.7813 L927.5625,688.7813 A0,0 0 0 0 927.5625,688.7813 " fill="#FEFFDD" style="stroke:#181818;stroke-width:0.5;"/><path d="M1592.5625,688.7813 L1592.5625,698.7813 L1602.5625,698.7813 L1592.5625,688.7813 " fill="#FEFFDD" style="stroke:#181818;stroke-width:0.5;"/><text fill="#000000" font-family="sans-serif" font-size="13" lengthAdjust="spacing" textLength="110" x="933.5625" y="705.8481">Texto explicativo:</text><text fill="#000000" font-family="sans-serif" font-size="13" lengthAdjust="spacing" textLength="175" x="933.5625" y="720.981">- Este &#233; o ponto de partida.</text><text fill="#000000" font-family="sans-serif" font-size="13" lengthAdjust="spacing" textLength="654" x="933.5625" y="736.1138">- Se o usu&#225;rio j&#225; est&#225; logado, consultamos a API de aplicativos para obter a aplica&#231;&#227;o padr&#227;o definida.</text><text fill="#000000" font-family="sans-serif" font-size="13" lengthAdjust="spacing" textLength="621" x="933.5625" y="751.2466">- Se n&#227;o houver uma aplica&#231;&#227;o padr&#227;o na API, redirecionamos para a &#250;ltima aplica&#231;&#227;o acessada.</text><text fill="#000000" font-family="sans-serif" font-size="13" lengthAdjust="spacing" textLength="415" x="933.5625" y="766.3794">- Caso contr&#225;rio, redirecionamos para a aplica&#231;&#227;o padr&#227;o da API.</text><text fill="#000000" font-family="sans-serif" font-size="13" lengthAdjust="spacing" textLength="445" x="933.5625" y="781.5122">- Se o login n&#227;o for bem-sucedido, uma mensagem de erro &#233; exibida.</text><text fill="#000000" font-family="sans-serif" font-size="13" lengthAdjust="spacing" textLength="369" x="933.5625" y="796.645">- O usu&#225;rio pode definir uma aplica&#231;&#227;o padr&#227;o se desejar.</text><text fill="#000000" font-family="sans-serif" font-size="13" lengthAdjust="spacing" textLength="363" x="933.5625" y="811.7778">- A escolha do usu&#225;rio &#233; atualizada na API de aplicativos.</text><text fill="#000000" font-family="sans-serif" font-size="13" lengthAdjust="spacing" textLength="413" x="933.5625" y="826.9106">- Caso contr&#225;rio, a &#250;ltima aplica&#231;&#227;o acessada se torna a padr&#227;o.</text><rect fill="#F1F1F1" height="33.9688" rx="12.5" ry="12.5" style="stroke:#181818;stroke-width:0.5;" width="261" x="646.5625" y="744.8945"/><text fill="#000000" font-family="sans-serif" font-size="12" lengthAdjust="spacing" textLength="241" x="656.5625" y="766.0332">Usu&#225;rio logado na aplica&#231;&#227;o desejada</text><ellipse cx="777.0625" cy="865.9766" fill="none" rx="11" ry="11" style="stroke:#222222;stroke-width:1.0;"/><ellipse cx="777.0625" cy="865.9766" fill="#222222" rx="6" ry="6" style="stroke:#111111;stroke-width:1.0;"/><line style="stroke:#181818;stroke-width:1.0;" x1="777.0625" x2="777.0625" y1="30" y2="50"/><polygon fill="#181818" points="773.0625,40,777.0625,50,781.0625,40,777.0625,44" style="stroke:#181818;stroke-width:1.0;"/><line style="stroke:#181818;stroke-width:1.0;" x1="217.25" x2="161" y1="203.9375" y2="203.9375"/><line style="stroke:#181818;stroke-width:1.0;" x1="161" x2="161" y1="203.9375" y2="225.9375"/><polygon fill="#181818" points="157,215.9375,161,225.9375,165,215.9375,161,219.9375" style="stroke:#181818;stroke-width:1.0;"/><line style="stroke:#181818;stroke-width:1.0;" x1="432.25" x2="488.5" y1="203.9375" y2="203.9375"/><line style="stroke:#181818;stroke-width:1.0;" x1="488.5" x2="488.5" y1="203.9375" y2="225.9375"/><polygon fill="#181818" points="484.5,215.9375,488.5,225.9375,492.5,215.9375,488.5,219.9375" style="stroke:#181818;stroke-width:1.0;"/><line style="stroke:#181818;stroke-width:1.0;" x1="161" x2="161" y1="259.9063" y2="277.9063"/><line style="stroke:#181818;stroke-width:1.0;" x1="161" x2="312.75" y1="277.9063" y2="277.9063"/><polygon fill="#181818" points="302.75,273.9063,312.75,277.9063,302.75,281.9063,306.75,277.9063" style="stroke:#181818;stroke-width:1.0;"/><line style="stroke:#181818;stroke-width:1.0;" x1="488.5" x2="488.5" y1="259.9063" y2="277.9063"/><line style="stroke:#181818;stroke-width:1.0;" x1="488.5" x2="336.75" y1="277.9063" y2="277.9063"/><polygon fill="#181818" points="346.75,273.9063,336.75,277.9063,346.75,281.9063,342.75,277.9063" style="stroke:#181818;stroke-width:1.0;"/><line style="stroke:#181818;stroke-width:1.0;" x1="324.75" x2="324.75" y1="171.9375" y2="191.9375"/><polygon fill="#181818" points="320.75,181.9375,324.75,191.9375,328.75,181.9375,324.75,185.9375" style="stroke:#181818;stroke-width:1.0;"/><line style="stroke:#181818;stroke-width:1.0;" x1="902.25" x2="846" y1="306.9063" y2="306.9063"/><line style="stroke:#181818;stroke-width:1.0;" x1="846" x2="846" y1="306.9063" y2="328.9063"/><polygon fill="#181818" points="842,318.9063,846,328.9063,850,318.9063,846,322.9063" style="stroke:#181818;stroke-width:1.0;"/><line style="stroke:#181818;stroke-width:1.0;" x1="1117.25" x2="1173.5" y1="306.9063" y2="306.9063"/><line style="stroke:#181818;stroke-width:1.0;" x1="1173.5" x2="1173.5" y1="306.9063" y2="328.9063"/><polygon fill="#181818" points="1169.5,318.9063,1173.5,328.9063,1177.5,318.9063,1173.5,322.9063" style="stroke:#181818;stroke-width:1.0;"/><line style="stroke:#181818;stroke-width:1.0;" x1="846" x2="846" y1="362.875" y2="380.875"/><line style="stroke:#181818;stroke-width:1.0;" x1="846" x2="997.75" y1="380.875" y2="380.875"/><polygon fill="#181818" points="987.75,376.875,997.75,380.875,987.75,384.875,991.75,380.875" style="stroke:#181818;stroke-width:1.0;"/><line style="stroke:#181818;stroke-width:1.0;" x1="1173.5" x2="1173.5" y1="362.875" y2="380.875"/><line style="stroke:#181818;stroke-width:1.0;" x1="1173.5" x2="1021.75" y1="380.875" y2="380.875"/><polygon fill="#181818" points="1031.75,376.875,1021.75,380.875,1031.75,384.875,1027.75,380.875" style="stroke:#181818;stroke-width:1.0;"/><line style="stroke:#181818;stroke-width:1.0;" x1="1009.75" x2="1009.75" y1="259.9063" y2="294.9063"/><polygon fill="#181818" points="1005.75,284.9063,1009.75,294.9063,1013.75,284.9063,1009.75,288.9063" style="stroke:#181818;stroke-width:1.0;"/><line style="stroke:#181818;stroke-width:1.0;" x1="1157.375" x2="1009.75" y1="203.9375" y2="203.9375"/><line style="stroke:#181818;stroke-width:1.0;" x1="1009.75" x2="1009.75" y1="203.9375" y2="225.9375"/><polygon fill="#181818" points="1005.75,215.9375,1009.75,225.9375,1013.75,215.9375,1009.75,219.9375" style="stroke:#181818;stroke-width:1.0;"/><line style="stroke:#181818;stroke-width:1.0;" x1="1301.375" x2="1449" y1="203.9375" y2="203.9375"/><line style="stroke:#181818;stroke-width:1.0;" x1="1449" x2="1449" y1="203.9375" y2="225.9375"/><polygon fill="#181818" points="1445,215.9375,1449,225.9375,1453,215.9375,1449,219.9375" style="stroke:#181818;stroke-width:1.0;"/><line style="stroke:#181818;stroke-width:1.0;" x1="1009.75" x2="1009.75" y1="392.875" y2="410.875"/><line style="stroke:#181818;stroke-width:1.0;" x1="1009.75" x2="1217.375" y1="410.875" y2="410.875"/><polygon fill="#181818" points="1207.375,406.875,1217.375,410.875,1207.375,414.875,1211.375,410.875" style="stroke:#181818;stroke-width:1.0;"/><line style="stroke:#181818;stroke-width:1.0;" x1="1449" x2="1449" y1="259.9063" y2="410.875"/><line style="stroke:#181818;stroke-width:1.0;" x1="1449" x2="1241.375" y1="410.875" y2="410.875"/><polygon fill="#181818" points="1251.375,406.875,1241.375,410.875,1251.375,414.875,1247.375,410.875" style="stroke:#181818;stroke-width:1.0;"/><line style="stroke:#181818;stroke-width:1.0;" x1="1229.375" x2="1229.375" y1="171.9375" y2="191.9375"/><polygon fill="#181818" points="1225.375,181.9375,1229.375,191.9375,1233.375,181.9375,1229.375,185.9375" style="stroke:#181818;stroke-width:1.0;"/><line style="stroke:#181818;stroke-width:1.0;" x1="698.5625" x2="324.75" y1="115.9688" y2="115.9688"/><line style="stroke:#181818;stroke-width:1.0;" x1="324.75" x2="324.75" y1="115.9688" y2="137.9688"/><polygon fill="#181818" points="320.75,127.9688,324.75,137.9688,328.75,127.9688,324.75,131.9688" style="stroke:#181818;stroke-width:1.0;"/><line style="stroke:#181818;stroke-width:1.0;" x1="855.5625" x2="1229.375" y1="115.9688" y2="115.9688"/><line style="stroke:#181818;stroke-width:1.0;" x1="1229.375" x2="1229.375" y1="115.9688" y2="137.9688"/><polygon fill="#181818" points="1225.375,127.9688,1229.375,137.9688,1233.375,127.9688,1229.375,131.9688" style="stroke:#181818;stroke-width:1.0;"/><line style="stroke:#181818;stroke-width:1.0;" x1="324.75" x2="324.75" y1="289.9063" y2="440.875"/><line style="stroke:#181818;stroke-width:1.0;" x1="324.75" x2="765.0625" y1="440.875" y2="440.875"/><polygon fill="#181818" points="755.0625,436.875,765.0625,440.875,755.0625,444.875,759.0625,440.875" style="stroke:#181818;stroke-width:1.0;"/><line style="stroke:#181818;stroke-width:1.0;" x1="1229.375" x2="1229.375" y1="422.875" y2="440.875"/><line style="stroke:#181818;stroke-width:1.0;" x1="1229.375" x2="789.0625" y1="440.875" y2="440.875"/><polygon fill="#181818" points="799.0625,436.875,789.0625,440.875,799.0625,444.875,795.0625,440.875" style="stroke:#181818;stroke-width:1.0;"/><line style="stroke:#181818;stroke-width:1.0;" x1="777.0625" x2="777.0625" y1="83.9688" y2="103.9688"/><polygon fill="#181818" points="773.0625,93.9688,777.0625,103.9688,781.0625,93.9688,777.0625,97.9688" style="stroke:#181818;stroke-width:1.0;"/><line style="stroke:#181818;stroke-width:1.0;" x1="568.8125" x2="568.8125" y1="540.8438" y2="560.8438"/><polygon fill="#181818" points="564.8125,550.8438,568.8125,560.8438,572.8125,550.8438,568.8125,554.8438" style="stroke:#181818;stroke-width:1.0;"/><line style="stroke:#181818;stroke-width:1.0;" x1="568.8125" x2="568.8125" y1="594.8125" y2="614.8125"/><polygon fill="#181818" points="564.8125,604.8125,568.8125,614.8125,572.8125,604.8125,568.8125,608.8125" style="stroke:#181818;stroke-width:1.0;"/><line style="stroke:#181818;stroke-width:1.0;" x1="628.0625" x2="568.8125" y1="484.875" y2="484.875"/><line style="stroke:#181818;stroke-width:1.0;" x1="568.8125" x2="568.8125" y1="484.875" y2="506.875"/><polygon fill="#181818" points="564.8125,496.875,568.8125,506.875,572.8125,496.875,568.8125,500.875" style="stroke:#181818;stroke-width:1.0;"/><line style="stroke:#181818;stroke-width:1.0;" x1="926.0625" x2="985.3125" y1="484.875" y2="484.875"/><line style="stroke:#181818;stroke-width:1.0;" x1="985.3125" x2="985.3125" y1="484.875" y2="506.875"/><polygon fill="#181818" points="981.3125,496.875,985.3125,506.875,989.3125,496.875,985.3125,500.875" style="stroke:#181818;stroke-width:1.0;"/><line style="stroke:#181818;stroke-width:1.0;" x1="568.8125" x2="568.8125" y1="648.7813" y2="666.7813"/><line style="stroke:#181818;stroke-width:1.0;" x1="568.8125" x2="765.0625" y1="666.7813" y2="666.7813"/><polygon fill="#181818" points="755.0625,662.7813,765.0625,666.7813,755.0625,670.7813,759.0625,666.7813" style="stroke:#181818;stroke-width:1.0;"/><line style="stroke:#181818;stroke-width:1.0;" x1="985.3125" x2="985.3125" y1="540.8438" y2="666.7813"/><line style="stroke:#181818;stroke-width:1.0;" x1="985.3125" x2="789.0625" y1="666.7813" y2="666.7813"/><polygon fill="#181818" points="799.0625,662.7813,789.0625,666.7813,799.0625,670.7813,795.0625,666.7813" style="stroke:#181818;stroke-width:1.0;"/><line style="stroke:#181818;stroke-width:1.0;" x1="777.0625" x2="777.0625" y1="452.875" y2="472.875"/><polygon fill="#181818" points="773.0625,462.875,777.0625,472.875,781.0625,462.875,777.0625,466.875" style="stroke:#181818;stroke-width:1.0;"/><line style="stroke:#181818;stroke-width:1.0;" x1="777.0625" x2="777.0625" y1="678.7813" y2="744.8945"/><polygon fill="#181818" points="773.0625,734.8945,777.0625,744.8945,781.0625,734.8945,777.0625,738.8945" style="stroke:#181818;stroke-width:1.0;"/><line style="stroke:#181818;stroke-width:1.0;" x1="777.0625" x2="777.0625" y1="778.8633" y2="854.9766"/><polygon fill="#181818" points="773.0625,844.9766,777.0625,854.9766,781.0625,844.9766,777.0625,848.9766" style="stroke:#181818;stroke-width:1.0;"/><!--SRC=[fPH1Rjim44NtEiKi7S390PH5OQHP50YQecaFG8jZcu784KWgC7gRe8kY1-YcMrsiCn9jARBae0aCsB14_Z_pvfCXAX-p_7kecsTl25I18IZWJrMQGZM_cfzqdPaDBEwXFYp249jdA6chD7suWBX31ui7OoyoWFo6NAXBbeNLbq-WCIb5yqG1Al97cMjUBSAhtWagfRtyQjmOPxG2fqHcRC8sNr4RZuKXnqwLygEQUwLMGBom30YBp_pmZ4Jpjup6lfJgc6ZLYZXjDjbBgVnsRzR6GyHIISCCnhX3TtVo1zPeBqDTiE4fiVzbzWvgR-9sIkwDx0xq9aQH25fqGMtH2WBqdWR4s-zn43K6V5IfRwPa9tivYMXoeugN_S4m0Ywc_O48M7Pjpd5gI-WQp5UnLgNvCJt7WYnhO2Yet77DD1ZgA4yVKp_JZgApLhp1lOOyGUkRwOwiR1nkw5l874K4RxQxc7t3VUIZlZzsa6UNS1luVVCRk1foKRRAy2DdxehVFY3qNS4Ztn73csB9bNSnjqn3JKPTWaJhY7wMTfVmvERasOxg9vmTVZeBI_1zOkt1wZn0CRbHGOYxwDkcvcJcJz2HItihT1Ll-4GFRuHbM_mu_C8P9QbT9OFOLyHBNWaz1pSDrilkrLJmn46bo1vlZT5C9Y6SvoRMaNnxP58rLv95a7HbMOXK_GC0]--></g></svg>